<svg xmlns="http://www.w3.org/2000/svg" version="1.1" xmlns:xlink="http://www.w3.org/1999/xlink" xmlns:svgjs="http://svgjs.dev/svgjs" width="1440" height="560" preserveAspectRatio="none" viewBox="0 0 1440 560"><g mask="url(&quot;#SvgjsMask1065&quot;)" fill="none"><path d="M 0,0 C 72,55 216,255.8 360,275 C 504,294.2 576,108 720,96 C 864,84 936,219.4 1080,215 C 1224,210.6 1368,102.2 1440,74L1440 560L0 560z" fill="#184a7e"></path><path d="M 0,466 C 72,450.4 216,395 360,388 C 504,381 576,446.4 720,431 C 864,415.6 936,299.4 1080,311 C 1224,322.6 1368,453.4 1440,489L1440 560L0 560z" fill="#2264ab"></path></g><defs><mask id="SvgjsMask1065"><rect width="1440" height="560" fill="#ffffff"></rect></mask></defs></svg>